# xmcd CD database file
#
# Track frame offsets:
#	182
#	18097
#	42022
#	69330
#
# Disc length: 1160 seconds
#
# Revision: 0
# Processed by: cddbd v1.5.1PL2 Copyright (c) Steve Scherf et al.
# Submitted via: CDex 1.51
#
DISCID=23048604
DTITLE=Jazzkantine - Alles Nur Chemie (Single)
DYEAR=1997
DGENRE=Jazz
TTITLE0=Alles Nur Chemie (Radio Mix)
TTITLE1=Alles Nur Chemie (Rias Big Band Mix)
TTITLE2=Alles Nur Chemie (Erchi's Space Mix)
TTITLE3=Alles Nur Chemie (Instrumental)
EXTD=YEAR: 1997
EXTT0=
EXTT1=
EXTT2=
EXTT3=
PLAYORDER=
